<svg width="513" height="513" viewBox="0 0 513 513" fill="none" xmlns="http://www.w3.org/2000/svg">
<g id="Logo">
<path d="M0.5 82.42C0.5 37.1768 37.1768 0.5 82.42 0.5H430.58C475.823 0.5 512.5 37.1768 512.5 82.42V430.58C512.5 475.823 475.823 512.5 430.58 512.5H82.42C37.1768 512.5 0.5 475.823 0.5 430.58V82.42Z" fill="white"/>
<path id="Vector" d="M114.5 335.389L146.056 366.945L209.167 303.833M272.278 161.833H398.5M272.278 256.5H398.5M272.278 351.167H398.5M130.278 146.056H193.389C202.103 146.056 209.167 153.12 209.167 161.833V224.945C209.167 233.658 202.103 240.722 193.389 240.722H130.278C121.564 240.722 114.5 233.658 114.5 224.945V161.833C114.5 153.12 121.564 146.056 130.278 146.056Z" stroke="#329CFF" stroke-width="40" stroke-linecap="round" stroke-linejoin="round"/>
</g>
</svg>
